/* XPM */
static char *_9c822b61ea64643a616917f09eaf9dabi4R2tz4xvneel1G[] = {
/* columns rows colors chars-per-pixel */
"64 64 148 2 ",
"   c #544337",
".  c #5A4537",
"X  c #564538",
"o  c #5B4738",
"O  c #5E493A",
"+  c #614B3B",
"@  c #67503F",
"#  c #69503F",
"$  c #5F4E40",
"%  c #624F40",
"&  c #655141",
"*  c #6A5342",
"=  c #6D5946",
"-  c #6F5B4A",
";  c #715743",
":  c #745945",
">  c #775B46",
",  c #745A45",
"<  c #795B45",
"1  c #7A5B45",
"2  c #795C46",
"3  c #7B5D46",
"4  c #735B48",
"5  c #705C4A",
"6  c #745C48",
"7  c #765E49",
"8  c #775E4A",
"9  c #765F4A",
"0  c #775F4A",
"q  c #755E4A",
"w  c #785E49",
"e  c #795E49",
"r  c #7B5E49",
"t  c #7A5F49",
"y  c #7B5F49",
"u  c #7D5E48",
"i  c #7A5E49",
"p  c #75604D",
"a  c #76604D",
"s  c #75614E",
"d  c #76614D",
"f  c #7A604A",
"g  c #7B614A",
"h  c #7B624B",
"j  c #7E6149",
"k  c #7D604A",
"l  c #7D614B",
"z  c #7D624B",
"x  c #7E624B",
"c  c #79604D",
"v  c #7A614D",
"b  c #79634D",
"n  c #7A634D",
"m  c #7B634D",
"M  c #7C624D",
"N  c #7D624D",
"B  c #7E634C",
"V  c #7E624D",
"C  c #7B644E",
"Z  c #7D644D",
"A  c #7D644E",
"S  c #7D654E",
"D  c #7E654E",
"F  c #7F654E",
"G  c #7D664E",
"H  c #7D634D",
"J  c #805F47",
"K  c #836149",
"L  c #81634A",
"P  c #81624B",
"I  c #80634B",
"U  c #82634B",
"Y  c #83634B",
"T  c #84644A",
"R  c #84644B",
"E  c #85654B",
"W  c #80634C",
"Q  c #80634D",
"!  c #81644D",
"~  c #81654D",
"^  c #83644C",
"/  c #83644D",
"(  c #82654D",
")  c #83654D",
"_  c #83664D",
"`  c #80654E",
"'  c #82654E",
"]  c #80664E",
"[  c #81664E",
"{  c #82674E",
"}  c #84644C",
"|  c #84654D",
" . c #85654D",
".. c #85674D",
"X. c #86664C",
"o. c #87664C",
"O. c #86664D",
"+. c #87664D",
"@. c #84664E",
"#. c #84674E",
"$. c #85674E",
"%. c #86664E",
"&. c #86674E",
"*. c #87674E",
"=. c #83654C",
"-. c #88664D",
";. c #89664D",
":. c #88674D",
">. c #89674D",
",. c #88674E",
"<. c #8A674E",
"1. c #89664C",
"2. c #84684E",
"3. c #85684E",
"4. c #84694F",
"5. c #85694F",
"6. c #86684E",
"7. c #87684E",
"8. c #86694E",
"9. c #87694E",
"0. c #87694F",
"q. c #876A4F",
"w. c #86694E",
"e. c #88684D",
"r. c #88684E",
"t. c #89684E",
"y. c #88694E",
"u. c #88694F",
"i. c #8B684E",
"p. c #8B694E",
"a. c #886A4F",
"s. c #8D684D",
"d. c #8C684E",
"f. c #8C694E",
"g. c #8D694E",
"h. c #8E6A4E",
"j. c #8F6A4E",
"k. c #8C694E",
"l. c #90694D",
"z. c #916A4E",
"x. c #906B4E",
"c. c #916B4E",
"v. c #926B4E",
"b. c #936B4E",
"n. c #946B4E",
"m. c #946C4E",
"M. c #926B4E",
"N. c #846750",
/* pixels */
"b.b.p.3.^ s N.5.Z u.v.f.u.+.s Z <.A ! q ^ b.-.! j.m.j.+.v.v.5.<.b b u.^ ^ z f b.d.N.+.M.M.! N 7 b.j.^ +.n.n.b b u.^ s ^ 3.p.b.b.",
"b.+.7 z <.^ +.^ N u.f.= * N.N.+.N.V ^ <.f.7 ! N.N -.+.^ v.q & b ^ N.+.N S 5.j.e ; e A +.+.! +.f.N e 3.C N.u.N N ^ <.N.-.N 7 -.b.",
"2.^ -.b.M./ * q -.5.u X   % + * 4 <.N.%.= X + = - s N.{ ^ O   + % & - / 3.! *   . 1 , +.! b p.e O o * 5 - S 3.+.q = N b.b.+.U 3.",
"Z Z -.j.M.! O $ + * O O + O X   + r % * & X X X   = U & O O % + o   o , = o X o + & o r + O & = O X X X O U , + O O ! b.j.p.C Z ",
"x.p.N N K ; $ O O O + + & O O X . o X X .   + + O O + O O + + + O X   O . . o O   O O X O O . .   X & $ O @ o O O $ ; P z N p.b.",
"j.+.P + o o O O O + + O O O O @ + + + + + + + + O O O + + + + + + + + + + . X O X + * X O O O + % O O O o o + O O o o o @ z +.p.",
"^ 3.3.z + O % + O + * @ & O O O + + + + + + O + O O O + = + % + + + O + + + O O o + + & & O + + + O O O O O O O O & O + z 3.^ ^ ",
"5.5.+.= O O O + + + + + O + @ O . + + % + . . . O + O + + O + + % O o + + + + + O O o O o O + + O o o + O + + + % O o O = +.u.5.",
"S ^ e   . O O O + O o . . o o o . + + # # + + + + # + . . . . . o o o + + + + + + + + + + + + # + + + + + + + + O O + o   e ^ C ",
"u.p.,   . + + + + O O o O o o + . . + + + + + + + + + + + + + + + + + + + + + + + + + + + + + + + + + + + + + + + + + o   = Z s ",
"M.-.O o O . O + + + + O o o o + O + O # + + + + + + + + + + + + o + O + + + + + + o o + + + + + + + + + + + + + o . o o X * ! b ",
"p.u X O + + + + + O + + + + + + + . + + + O + . o . + + + + o . . o o o + * # o . . . . . + + # + + + + o o o + + + o o o 4 ! u.",
"C O X O + + + + + . . . o + + + . . + + O . o . + + + + + + o + + + + + + + + + + + + + o + + # + + + + + O + + + + o X , -.u.j.",
"j.u o o . . O o o + O + + + + + + + + + + + + + # # + o . . o o o o + + + # + + + + . + + + + . . o . . + + + + + + X % = e -.b.",
"j.+.& O + O o . + + + + + + + + # + + . . . O + + + + + + + + . + o + + + + + + + o o + + + . . + + + + + + + + + o X     $ 5 ! ",
"+.2.7 X . + + + + + + + o + O o . . + + + O o . + + + + # # + + + + o . + + + o + + + + + + + + o . . + + + + + % + O O X O N b ",
"5.5.;   X % + o + + + + + . . . + + + + + + + . + + . + + + + # + + . + + . . + . + + + + + + + + + . . . . + + + + + @ = l.n.E ",
"S +.z O o O + O + + + + # + + + + + + + + + + . . . . + + + + + + + + + + + + + + + + + + + + + + + + + + + + + + + + o # K +.! ",
"p.+.e O o + + + + + . + + + + + + + + + + + + + + + + + + + + + + + . + + + + + + + + + + + + + + + + + + + + + + + + o   = ^ Z ",
"j.+.+ X o + O + + + . . . . . . + + + + . . + . + + + + + + . . . . . . . + + + + . . . + . + + + + + + + + + + . . + .   * ^ b ",
"b z z o O + o o . + + + + + + + + + + + + + + + + + + + + + + + + + . + + + + + + + . + + + + # + + + + . . . + O O O O X 5 N -.",
"2.b.b., X O & O + + + + + + + + + + + + + + + + + . . + + + + + + . + + + . . . . . . + + + + # + + + + + + + + + O O X ; +.p.j.",
"p.p.a.G O   O & + + O + # # + . . . + + # + . . . . + . + + + + + . + + + + . + + + + # + + + . . . . . o + + + + O O O - ^ j.b.",
"b.b & O   O + O + + + O . . + o + + + + # + + + + + + + + + + . + + + + + + + + + + + # + + . . + + + + + + + + + O X     O 5 ^ ",
"+.N O   O + O + + + + + + + + + + + + . . + + + + + + + + + . . . . + + + + + . + . . . . + + + + o o o + + # + + + O O   O q s ",
"-.n.1.* o . o o + + + + + o o + + + + + . . . . . + + + + + # + + + + + + + + + + + + + + + + + + o . . . . + + + & $ & = E x.+.",
"^ p.o.+ + + O O o + + + + . o + + + + + + + + . . + + + . + + . . + # + + + + + + + + + + + + + + + + + + + + + + O + O * p.p.^ ",
"+.+.e   X + + + + + + + + + + + . . + + + + + + + + . + + . + + + + + + + + + + + + + + + + + + + + + + + + + + + + + O X - S Z ",
"b.j.% X o o O + + + + o o o . . . + + + + + + + . + . + + + + + o + + + + + + + # + + + + + + o . o + + + + + + + + + + . + +.b ",
"p.z X o + + + + + + + + + + + + + + + + + . + + + + + + + + + . . . . o + + + + . . . . + + + + + + + + + o + + + o . o X o q +.",
"C + . O + + + + + o . o + + + + + . . + + + + + + + . + + + + + o o + + + + + + + + + . o + + + + + o o o + + + o o O % O   & p.",
"p.= X o o o + + + + o o o + + + + + + . . + + + + . + + . . . . + + + + + + + + + + + + + + + + + + + + * + + + + + O o o . ; b.",
"n.<.O $ + . . . + + + + + + + + + + + + + + + + + + + + + . + + + + + + + o . o . + + + + . . . + + + + + O + + + + o O . + J K ",
"N.N.4 X . + + + + + + + + + + . . . + + + + . . + + . + + + + + # + + + + . . + . # + + + . + . + # + + . + + + O O . . . J ^ 7 ",
"<.5.=     + + + + + + + + . . . + + + + + + + + + + + + + + . + # # + + + + + + + + + + + + + + + + + O + + + + . + O . . * U ^ ",
"N.<.J . . + + . + + + + # + + + + + + + . . + + + + + + + + + . . o . + + # o . + . . . . + + + + + + . . + O O # + + .   , p.x.",
"Z ^ N + . + + + + + + + + + + + + + + + + + + + + + + + + + + + O O O + + + O O + + O . . O # + + + + + + . . # + + + X X U h.3.",
"b.j., o . + + + + + + + + + + + + + + + + + + + + + + + + + + + + + + + + + + + + O + + # + O + + + . . . + + + + + + O O z 3.b ",
"z e *     . + + + + + + + + + + + + + + + + + . . + . + # + + . . . O O + + + + O . + + + O O O . . . . + # + # + + + O X * N ^ ",
"2.b.K X . + + + + + + . . . . + . + + + + . . . + + + + + + + + + . . O O + + + + + + + + O . . . + + + + # + . . . X   X e 3.p.",
"3.j.b.# o O + O + + + + + . + + + + + . . + + + + + + + + + + + # + + + + + + . . + + . + + + # + + + + + + + + + O . X + 3.j.b.",
"x.^ b P   X X . . + . + + + + # # + + + . . . . + + + + + + + + . . . + + + + + # . . . . . + # * o . . . o + + + O X   5 7 z -.",
"5.S <.,   X o O + + + . . . . + + + + # + + + + + . + + + + + + + + + + + . + + # + # + O + + + + + + + + . + + + O     , j.b q ",
"p.b.d.O   O o + + + + + + . + . + + + + + + + + + . . . + . . . O + # + + + + # . O + + + + + # + + + + + + + o O O O   + -.j.+.",
"+.b.K X X O O O + + + + + + + . . . + + + + + + + + + + . + o + + + + + + . + . . . . . # # . . o o o . + + + + o + O . X K b.+.",
"N ! ! + o O + + + . . + + + + + + + + + + + + + + + + + + + + + + + + + O . . . + + + . + . + + + + + + + + + + + + % + O 5 C ^ ",
"n.j.#   O + + + + + . . . . + . + + . . . . + + o + + + + + + + . + . O + # . + . . . . . . + O o + + + + + + + + + + +   = 3.b ",
"Z u =   O + o O + + + + + . . . + + + + + . + . + + + + + + o + O . + + + + . + . + # + O + + + + + + + + + + + + + o o   O 0 ! ",
"^ j.p.+ X & O O O O O @ + + + + + + + + + + + + + + + + + + + + # + + + + + + + + + + + + + + + + + . . + . + + . . + + .   * ;.",
"5.h.m.E O X $ & + O O + & @ + + o + + + + . + + + + + + . . o o + + + + + o O + + # + + . O + + + + + + # + + + + + + + . . & s.",
"x.+.7 = O X + + + + + O O O O . . o + + . + + + + + + + + o o o O + # + + . . . O o + + + + + O + + + + + + + + + + + . . X J d.",
"u.5 X   X O + + + + + O o O + + + + + + + + o . . . + + # + + + + + + + + + + + + o . o + + o o + + + + . . + + + o . . o : A a ",
"p.j., + O o o O + + + + + + + + + + + + + o . o + + + + # + + . o . . o + + + + + + + + + + + + + + + + + + + + o o O     , N.r ",
"p.b.b.* + O o o + + + + + o . + + + + + + + o + # + + + + . . . + O + + + + + + o + + + + + + + + + + + + . + + % % %   X * %.d.",
"N ^ e X o + + + + + + + + + O O + + + + # + + o + . . + + + + + + o O + + + + + + + + + O O O + + + + + . . . + + + + o X -.n.n.",
"j.j.z o O + + O + + + + + O o o + + + o o o + + + + + + + + + + o . + + + + + + + + + . o o o o . + + + + + + + + + + $ O J M.n.",
"j.+.5 O X o O O o + O . O + + + % & + + + + % + O O + O O o O O + + + * + . . o O + O + + + + O + + + O + O + O . o o X $ ; +.f.",
"2.^ -.: O X O + + + O o o . . O % * + + + o O o . o O O O O X O o o + * + + + + O O + + + O % O O O O o o O o + + + o o , ;.! N.",
"Z Z +.-.+ o . O + + + + + O + + O + + O . o o O O O + + + + O @ + + O + + + + + o O O o o + + o o o O $ O O + & + o   & -.+.N S ",
"x.p.N N.u X X . . o O + & O O .   o X X     o + O O O . O + + & . o X X O O + O   o o   o O X o   X O O O % X X .   X u +.N f.m.",
"j.^ +.h.K < + X & & O O O O X   O = % = &   o   X * - & + O O $ . X X * * O X X O & o 1 % + * = X   X   X q & % X + : P f.+.^ u.",
"+.2.3.3.n.o.# ; Z ^ f O X @ @ 6 z N N ^ = X O = s { 3.C ^ + X O + = e ! C f & X o 1 1 j.-.4 ! 7 $ o & q b p.s S ; # o.b.u.3.3.+.",
"5.5.p.b E ! 7 z p.3.3.U = z U p u -.<.M.N.7 / j.v.v.b.3.5.+.; e -.e f d.3.j.u.7 5 u b.b.n.-.f.M.N e p.M.b.b.j.-.P 2 ^ +.b p.5.5.",
"C N ^ C z ! +.b.b.Z Z ^ Z h U U b.b.N.! n.f.5.^ p.m.v.^ N N N.f ! ! j.m.-.N j.b.u.^ +.b.n.p.N -.b.p.N.^ b.b.b.b.b.+.^ z N ^ Z C "
};
