/* XPM */
static char *a5486055cdb442d2e826e878eca67ef8NRO6qbQTSdQVGwtI[] = {
/* columns rows colors chars-per-pixel */
"64 64 11 1 ",
"  c None",
". c gray8",
"X c #10313F",
"o c #323131",
"O c #561C14",
"+ c #7F6843",
"@ c #872E20",
"# c #C93620",
"$ c #806843",
"% c #D2AA7B",
"& c #ECE2E2",
/* pixels */
"                                                                ",
"                                                                ",
"                                                                ",
"                                                                ",
"                                                                ",
"                                                                ",
"                                                                ",
"                                                                ",
"                                                                ",
"                                                                ",
"                                                                ",
"                                                                ",
"                                                                ",
"                                                                ",
"                                                                ",
"                                                                ",
"                                &                               ",
"                              & &  &                            ",
"                               &&&&                             ",
"                              &&&&&&                            ",
"                              &...&&                            ",
"                             ..&&&.&                            ",
"                             &&&&&&.                            ",
"                            &&&&&&%&&                           ",
"                             &&&%&%&&                           ",
"                             &%&$%%&                            ",
"                             .%%$%%..                           ",
"                            ..%%%%+.o                           ",
"                            .O.+++.O.                           ",
"                           @OOO...OOO@                          ",
"                          @@OOOOOOOOO@@                         ",
"                          @@OOOOOOOOO@@                         ",
"                          ##OOOOOOOOO##                         ",
"                          %%OOOOOOOOO%%                         ",
"                          %% OOOOOOO %%                         ",
"                          %% OOOOOOO %%                         ",
"                          %% OOOOOOO %%                         ",
"                          %%%.OOOOO.%%%                         ",
"                          %% X.....X %%                         ",
"                             XXXXXXX                            ",
"                             XXXXXXX                            ",
"                             XXXXXXX                            ",
"                             XXXXXXX                            ",
"                             XXX XXX                            ",
"                             XXX XXX                            ",
"                             .X. .X.                            ",
"                             ... ...                            ",
"                             ... ...                            ",
"                                                                ",
"                                                                ",
"                                                                ",
"                                                                ",
"                                                                ",
"                                                                ",
"                                                                ",
"                                                                ",
"                                                                ",
"                                                                ",
"                                                                ",
"                                                                ",
"                                                                ",
"                                                                ",
"                                                                ",
"                                                                "
};
