/* XPM */
static char *_d6e16aa380b40e9e89ef22c7bfa9d54NiS2JzRkUDQQIT0j[] = {
/* columns rows colors chars-per-pixel */
"64 64 200 2 ",
"   c None",
".  c #090613",
"X  c #0C0916",
"o  c #110714",
"O  c #140B17",
"+  c #140E18",
"@  c #17111C",
"#  c #191A2B",
"$  c #181728",
"%  c #1C2327",
"&  c #1D2628",
"*  c #1E282A",
"=  c #1F2C34",
"-  c #222D26",
";  c #252F28",
":  c #3C2325",
">  c #372827",
",  c #233127",
"<  c #26322B",
"1  c #29322D",
"2  c #2C3730",
"3  c #233B36",
"4  c #203038",
"5  c #202E34",
"6  c #452A1D",
"7  c #422D29",
"8  c #41342A",
"9  c #423A35",
"0  c #483A34",
"q  c #2C4A34",
"w  c #3A533F",
"e  c #355039",
"r  c #37653D",
"t  c #38643D",
"y  c #504739",
"u  c #6B5239",
"i  c #715B3D",
"p  c #6D4832",
"a  c #284A42",
"s  c #254541",
"d  c #2D5A4C",
"f  c #2E5D51",
"g  c #2F634F",
"h  c #35634D",
"j  c #3E7A49",
"k  c #2E6450",
"l  c #306551",
"z  c #367A5C",
"x  c #3B7D5B",
"c  c #357757",
"v  c #735E55",
"b  c #705444",
"n  c #467E4D",
"m  c #4B6F50",
"M  c #4D755B",
"N  c #4B7151",
"B  c #537B59",
"V  c #53694A",
"C  c #79785C",
"Z  c #79775B",
"A  c #6F7451",
"S  c #844C3D",
"D  c #94562D",
"F  c #AD642C",
"G  c #C47234",
"H  c #8C5941",
"J  c #9B6648",
"K  c #9B6546",
"L  c #957A49",
"P  c #92714E",
"I  c #8B7559",
"U  c #8C7957",
"Y  c #957C58",
"T  c #8A684D",
"R  c #A46D4B",
"E  c #A8664C",
"W  c #A5704C",
"Q  c #A8744B",
"!  c #A87556",
"~  c #B47C56",
"^  c #B66E4E",
"/  c #A97C65",
"(  c #D47C4D",
")  c #36845A",
"_  c #39855A",
"`  c #3D8A59",
"'  c #3B8157",
"]  c #45864C",
"[  c #43885A",
"{  c #528459",
"}  c #5A895F",
"|  c #5B8758",
" . c #449357",
".. c #4B9656",
"X. c #4C9C56",
"o. c #439158",
"O. c #4B9C58",
"+. c #469A58",
"@. c #5A915E",
"#. c #529D5B",
"$. c #589F5F",
"%. c #599458",
"&. c #7A835B",
"*. c #629655",
"=. c #6A9657",
"-. c #4EA156",
";. c #4FA258",
":. c #54A35D",
">. c #5AA15E",
",. c #50A157",
"<. c #63AD6A",
"1. c #69AF6F",
"2. c #76A56A",
"3. c #69B170",
"4. c #DA843C",
"5. c #838954",
"6. c #988858",
"7. c #889259",
"8. c #AF8852",
"9. c #BC8B55",
"0. c #BB855B",
"q. c #B38257",
"w. c #9A8968",
"e. c #9B876C",
"r. c #949574",
"t. c #BD8A64",
"y. c #B9BA79",
"u. c #DA8A5B",
"i. c #D6995D",
"p. c #C68955",
"a. c #E39A5F",
"s. c #C9A65C",
"d. c #C7A35C",
"f. c #D7A95F",
"g. c #C18F63",
"h. c #D99B63",
"j. c #C8906A",
"k. c #E29868",
"l. c #DBA462",
"z. c #D7AA60",
"x. c #DAAC61",
"c. c #D7AB67",
"v. c #DBA779",
"b. c #C4BC7C",
"n. c #D9B06E",
"m. c #E6BC67",
"M. c #EBBA67",
"N. c #EBBE69",
"B. c #EAB466",
"V. c #E5A278",
"C. c #EDBE6D",
"Z. c #9ADA5F",
"A. c #9BE45D",
"S. c #98C366",
"D. c #A8D668",
"F. c #A9CB6F",
"G. c #B1E16E",
"H. c #EDC369",
"J. c #F0C56A",
"K. c #F2C86B",
"L. c #F2CA75",
"P. c #EEC672",
"I. c #6A2286",
"U. c #762D8B",
"Y. c #8E3497",
"T. c #855189",
"R. c #8E4F8F",
"E. c #A15298",
"W. c #A47790",
"Q. c #BC56AB",
"!. c #B44FA6",
"~. c #BF60A9",
"^. c #D078A8",
"/. c #B38392",
"(. c #C69B8D",
"). c #C6889E",
"_. c #DEB181",
"`. c #DDBC8D",
"'. c #D1AE99",
"]. c #DBBB9C",
"[. c #DAB39F",
"{. c #D5B183",
"}. c #E0B183",
"|. c #E19AAC",
" X c #EAB8A8",
".X c #D9DF8D",
"XX c #D4CE8B",
"oX c #E4C88B",
"OX c #F1CA85",
"+X c #EDCB92",
"@X c #F2CA96",
"#X c #F1C791",
"$X c #E8D997",
"%X c #F3DA9D",
"&X c #F8DD9D",
"*X c #F2D189",
"=X c #E0E092",
"-X c #ECD2A1",
";X c #F7D6A1",
":X c #E7C0A2",
/* pixels */
"                                                                                                                                ",
"                                                                                                                                ",
"                                                                                                                                ",
"                                                                                                                                ",
"                                                                                                                                ",
"                                                                                                                                ",
"                                                                                                + + + + + O                     ",
"                                                                                                1 1 > : 7 6                     ",
"                                                                                            + 2 N B v D F D 6 +                 ",
"                                                                                            o 2 } 2.5.F 4.G p >                 ",
"                                                                                            o < ] >.%.5.p.4.^ H 7 +             ",
"                                                                                            1 e ] X...%.6.q.u.R 7 +             ",
"                                                                                        o 1 m @.#...' [ %.5.Q S > +             ",
"                                                                                        1 w @.<.:.o.x z ` %.Z i > +             ",
"                                                                                    o 1 m @.>.;.o.` ' z x [ %.V ; O             ",
"                                                                                    1 w } <.:.o.` _ ) z g g j r , O             ",
"                                                                                o 1 m @.$.:.o._ _ _ z l 3 % ; <                 ",
"                                                                                * e @.<.:.o.` _ _ z l a - O O O                 ",
"                                                            O + O O O + + O O - h ] #.:.o._ _ _ z l 3 %                         ",
"                                                            1 2 2 2 2 1 1 , ; q ] ,.O.o.` _ _ z l a % O                         ",
"                                                        X < N } } } } { ] n j ] X.X.o.` _ _ z l 3 %                             ",
"                                                        : y @.3.3.3.1.<.:.,.X.X.,...` ) x x l a % O                             ",
"                                                    . : S P =.:.:.:.:.:.,.,.,.-.-...` _ z l s =                                 ",
"                                                    9 b ^ 0.=.+.,.X.,.X...+.+...+. .` c l a = #                                 ",
"                                                . 9 w.j.u.q.=.-.-.X.X.X.o.` ` ` ` _ z l 3 %                                     ",
"                                                9 v y.=Xv.t.7.%.X.-.X. .` ) _ _ _ _ x d * O                                     ",
"                                            . 9 e.y.D.G.XXV.g.6.=.X.o._ _ _ _ _ _ _ z d % O                                     ",
"                                            9 v (.XXZ.A..X@XV.g.7.%.[ ) _ _ _ _ _ z z d - +                                     ",
"                                        . 9 e.(.^.~.S.A..X&X@X_.g.5.{ ) _ _ _ _ _ z z d * +                                     ",
"                                        9 v (.|.Q.E.r.S.b.=X%X@XV.t.&.{ ` ) _ ' _ _ z f * @                                     ",
"                                    . 9 w./.).Q.R.Y.E.W.F.G.=X;X@X}.t.U { ) ) ` _ _ z d 4 $                                     ",
"                                    : b {. X^.Y.U.U.!.).F.D.y.`.+XOXk.9.C { ` ) ) _ z f 4 #                                     ",
"                                o 7 H ~ oX[.E.I.I.T.).:X$XF./ ! n.L.M.l.0.U { ) _ z z f 4 #                                     ",
"                                1 0 E k.+X].W.T.T.W.:X&X;Xv.! J 9.z.N.M.k.0.&.| | M h a 4 #                                     ",
"                            o < m &./ k.`.-X].'.'.].-X%XOXC.z.9.K W z.J.M.l.0.! ~ T 2 &                                         ",
"                            < w } 2.8.g.}.@X;X-X`.`.+X*XP.H.K.z.R J 9.z.m.M.i.u.^ H 7 o                                         ",
"                        o 1 m @.$.>.*.7.g.V.@XoX/ ! n.L.H.H.H.N.z.9.K R f.J.C.p.u :                                             ",
"                        1 w @.<.:.O.-.*.U t.}.v.W J 9.z.m.m.z.z.H.z.W W f.m.s.L 8 X                                             ",
"                    o 1 m @.>.:.;.X.;...B C t.h.z.9.J R z.f.W W z.H.f.f.H.d.i 8                                                 ",
"                    < w @.<.>.X.X.;.O.` z M I 0.l.i.R W z.z.W J 9.z.H.m.d.L 8 X                                                 ",
"                O 1 N @.>.:.,.,.-.O.o._ _ x M Z 0.i.i.z.m.m.z.9.J Q x.s.i 8                                                     ",
"                + 2 } 3.>.X.X.X.O. .` _ _ ) z M I 0.l.B.H.H.K.x.W J 8.L 8 X                                                     ",
"                O 2 } 3.:.-.-...o.` _ _ _ _ ) x M Z 0.k.B.H.K.N.x.8.i 8                                                         ",
"                O 2 | 3.:.,.-.+.` ' _ _ _ ' ) ) z M I 0.l.B.B.x.d.L 8 .                                                         ",
"                O 2 } 3.:.X.X...` ) ) ` _ _ _ ) _ x M C p.u.u.~ u 8                                                             ",
"                O 1 { <.:.X.X. .` _ _ _ _ ) _ _ _ ) z M I ! E S : X                                                             ",
"                + 1 n :.,.X. .` _ _ _ _ _ _ ` _ _ _ z x B V 9 :                                                                 ",
"                + , t ] X.X.` ) ` _ _ _ _ _ _ _ _ _ _ z l s % O                                                                 ",
"                    - q ] O.o.) _ _ _ _ _ _ _ _ _ _ x l 3 %                                                                     ",
"                    O - t j ' _ _ _ _ _ _ _ _ _ _ z l a % O                                                                     ",
"                        - q l ) x _ _ _ _ _ _ _ z l 3 %                                                                         ",
"                        o % a l z _ _ x _ _ _ z l a % O                                                                         ",
"                            & 3 l z z z z z z f 3 %                                                                             ",
"                            O & a f d d d d f s * O                                                                             ",
"                                - # & - 5 - - -                                                                                 ",
"                                O O @ O O O + @                                                                                 ",
"                                                                                                                                ",
"                                                                                                                                ",
"                                                                                                                                ",
"                                                                                                                                ",
"                                                                                                                                ",
"                                                                                                                                ",
"                                                                                                                                ",
"                                                                                                                                "
};
