/* XPM */
static char *_57e563db18b408db87ca8bc479e1e19zZHOk33OAMEzCJdh[] = {
/* columns rows colors chars-per-pixel */
"64 64 129 2 ",
"   c None",
".  c #4D2712",
"X  c #4E2812",
"o  c #522B14",
"O  c #532F18",
"+  c #5A3117",
"@  c #56321A",
"#  c #5A351D",
"$  c #5E391E",
"%  c #603A1F",
"&  c #5B3720",
"*  c #5E3A21",
"=  c #623D23",
"-  c #644126",
";  c #664529",
":  c #69462A",
">  c #67482B",
",  c #6A4A2D",
"<  c #6C4E31",
"1  c #644F3C",
"2  c #704E31",
"3  c #6E5234",
"4  c #66523F",
"5  c #6C563E",
"6  c #715537",
"7  c #765837",
"8  c #735738",
"9  c #755A3A",
"0  c #795E3E",
"q  c #7A603F",
"w  c #675240",
"e  c #695642",
"r  c #6C5A46",
"t  c #6D5C48",
"y  c #715C45",
"u  c #7A5F40",
"i  c #715E48",
"p  c #7D6241",
"a  c #74624C",
"s  c #756551",
"d  c #786751",
"f  c #7B6A55",
"g  c #7F6E59",
"h  c #7F6F5A",
"j  c #7D6D5A",
"k  c #7F705B",
"l  c #7F7262",
"z  c #806544",
"x  c #806445",
"c  c #806545",
"v  c #816645",
"b  c #806546",
"n  c #826746",
"m  c #836847",
"M  c #826947",
"N  c #836947",
"B  c #826848",
"V  c #836848",
"C  c #83694A",
"Z  c #84694A",
"A  c #846A4A",
"S  c #866B4A",
"D  c #866B4B",
"F  c #876B4B",
"G  c #876C4B",
"H  c #846B4D",
"J  c #876E4D",
"K  c #856C4E",
"L  c #866C4E",
"P  c #866D4F",
"I  c #876E4F",
"U  c #876F4F",
"Y  c #846B4A",
"T  c #886C4C",
"R  c #886E4D",
"E  c #886E4E",
"W  c #886F4E",
"Q  c #896F4F",
"!  c #8A714E",
"~  c #8A704F",
"^  c #8A714F",
"/  c #8B714F",
"(  c #866E50",
")  c #876E50",
"_  c #886F51",
"`  c #8B7353",
"'  c #8D7453",
"]  c #8E7653",
"[  c #8A7254",
"{  c #8B7254",
"}  c #8B7455",
"|  c #8C7455",
" . c #8D7455",
".. c #8D7556",
"X. c #8E7556",
"o. c #8E7656",
"O. c #81705B",
"+. c #81715B",
"@. c #81715C",
"#. c #81715D",
"$. c #907756",
"%. c #907857",
"&. c #917858",
"*. c #917958",
"=. c #937B5C",
"-. c #937C5C",
";. c #947C5C",
":. c #967D5F",
">. c #947E5E",
",. c #957E5E",
"<. c #957E5F",
"1. c #857561",
"2. c #867661",
"3. c #847562",
"4. c #867966",
"5. c #897B67",
"6. c #8E7F6A",
"7. c #8C7F6C",
"8. c #977F61",
"9. c #8E806C",
"0. c #988162",
"q. c #998263",
"w. c #9A8364",
"e. c #9B8466",
"r. c #9B8566",
"t. c #9B8567",
"y. c #928371",
"u. c #938472",
"i. c #948675",
/* pixels */
"                                                                                                                                ",
"                                                                                                                                ",
"                                                                                                                                ",
"                                                                                                                                ",
"                                                                                                                                ",
"                                                                                                                                ",
"                                                                                                                                ",
"                                                    , 2 , 2 2 = 2 2 2 2 6                                                       ",
"                                            , , : = ! / / S S + G G F F S $ = - -                                               ",
"                                        2 , $.$.*.% Q / / S S + G F F F S $ 0 0 0 % -                                           ",
"                                    = % ' ' $.$.*.% 0.q.q.;.;.$ ;.0.>.>.$.+ 7 q 0 0 0 @ *                                       ",
"                                  : V % R e.e.e.r.% 0 7 7 0 x % 0 0 0 9 q % $.]  . .8 = 6 *                                     ",
"                                , R R % 8.7 Q z z % z p 0 7 x % 0 0 p p p - : - x u  .= 6 < *                                   ",
"                              : V R :.= 7 7 R z z % p p 0 0 p ; 7 q p p p : : N u u p - _ 6 6 #                                 ",
"                              : V ;.0 = 7 R z z z - p p p p p - q z q p q : N p u p u - u L 6 #                                 ",
"                            - u ' 7 0 = 9 R z z z : p p q p v : q q z q p : p p p u u , 0 p L 2 #                               ",
"                            : [ 9 0 0 - V v p v x : p p q 0 p : p p p p p , 0 x p 0 p , q q q G #                               ",
"                          : u [ 9 9 7 : p v p v x , q p 0 x v : p p p p x , p 0 u p p < q q 0 J < #                             ",
"                          - _ 9 7 7 9 , p p v v x , p u q 0 v : z p z p p , x 0 p q p < q q q 0 [ @                             ",
"                          - ) 7 9 0 9 < b v p v x , 0 u q x x : N p p p p , q q p p q 3 q 0 0 0 [ @                             ",
"                          # 9 7 8 0 0 , p x b = x , u u u u p : N z p z q , q = 9 p p < q q 0 0 0 o                             ",
"                          # # # % % % = = - = i.: , u u u p M , N p z q x , ; y.* - * * $ $ $ # # X                             ",
"                          @ ( f O.O.+.2.2.#.2.O.6.- u u u u v : N p q q q - 9.f 1.3.k k f g +.f f o                             ",
"                          @ y y a i a f f f g f f 6.- 0 u 0 p : N p p p = y.f f f a a a a a a r r o                             ",
"                          @ y y a i a H d f f j f O 0 0 0 0 x : N z p p p + N d f d a a a t a 5 y o                             ",
"                          O o o o + o O O O o ( O 2 0 0 0 y p : N p q z p , o Y o o o o o o o X o o                             ",
"                          @ - - - - , & , , , o < 2 0 0 u u p : N p p q q , , o > > > > : > > ; ; o                             ",
"                          O 9 7 9 8 8 = u p u , < 2 0 u u u p > S p p z z , q , u p p 3 9 9 9 9 6 o                             ",
"                          O 8 7 8 8 8 = p u u u 3 < u 9 u u p , ! q q p q < q q 0 q u 3 8 8 8 8 8 o                             ",
"                          O 8 6 8 9 7 , u u u 0 , 2 0 0 u 9 p ; G p p q q , p q q 0 9 3 8 8 8 8 8 o                             ",
"                          O 7 6 8 8 8 , p 0 9 0 , < 0 0 9 0 p > G p q p p < p q 0 0 0 3 8 8 8 8 8 o                             ",
"                          O 6 7 8 8 9 , u 0 0 0 0 < 9 0 y 9 p ; J q p q p , p q 0 0 0 3 8 3 3 6 8 o                             ",
"                          o 9 8 8 8 8 , p 9 9 9 8 3 9 9 9 q q ; Y q q q q < p 9 9 0 9 3 3 3 8 8 3 O                             ",
"                          o 3 8 8 8 8 > p 9 9 9 9 3 9 9 9 # % $ = * q q q 3 p 0 0 0 0 < 8 3 3 8 8 X                             ",
"                          o 9 3 9 3 6 > p 9 9 8 8 3 9 9 $ 9.9.9.5.9.$ q q 3 p 9 0 0 9 < 3 8 3 3 3 o                             ",
"                          o 6 8 3 9 5 < p 9 8 8 9 , 9 9 $ a a a a a # q q 3 p 9 9 0 9 > 3 3 8 3 3 o                             ",
"                          o 8 8 9 3 9 , p 3 8 8 9 3 8 9 # a i o a a # 9 9 3 q 8 9 9 0 > 3 3 3 3 3 X                             ",
"                          X 3 8 3 9 9 , p 3 8 8 3 , 0 7 O i i o i t o 8 7 3 p 7 9 9 9 ; 3 3 3 3 3 o                             ",
"                          o 3 8 6 6 6 , p 8 8 8 3 < 8 8 X 5 8 5 5 5 X 0 8 , p 9 9 9 9 ; 3 < 3 3 3 X                             ",
"                          X 8 3 8 8 6 , p 3 8 * 8 < 8 8 > X X o o o > 7 8 < q * 9 9 9 ; 3 3 3 3 3 X                             ",
"                          X # @ # # # $ $ $ * 9.# < 9 6 9 > > @ ; > 7 8 9 < * 9.$ * * $ # # # @ # X                             ",
"                          X d f j f g #.#.4.4.d 9.# 6 9 8 8 5 - 7 7 8 9 9 * 9.s k k f f f f g a d X                             ",
"                          X e 9 t a a a a d a f d 9.$ 6 8 8 5 - 9 8 8 9 $ 9.s s a a t t r r a 5 e X                             ",
"                          X 5 e t t r a a a a d d . 9 8 8 8 9 - 3 8 8 8 6 X s s a a t i a r r e e X                             ",
"                          X X X . . X . o X o d . - 8 8 6 6 5 ; 9 8 9 6 3 - X i X o X X X X X X o X                             ",
"                          X * % - ; > # > , , X ; - 6 3 6 6 6 = 8 3 6 3 3 - > . ; ; ; - ; ; * $ = X                             ",
"                          X 3 3 3 3 3 & 3 8 3 , 6 - 6 6 6 6 6 * 8 8 5 3 3 - 9 > 9 7 9 = < < < 1 < .                             ",
"                          X < 3 < 3 3 - 3 3 3 3 6 * 6 6 6 6 6 & 3 3 3 3 3 - 9 9 7 0 9 = < < < > < .                             ",
"                          X 3 3 3 3 3 - 3 3 5 3 3 - 3 3 w 4 3 @ 3 3 3 4 3 * 0 5 9 9 9 * < < < < < .                             ",
"                          X @ # # * & & & & & # # # O O O . X X O O @ O # # # & & @ & O O O O X . .                             ",
"                          X a a s s s f s s s j j s f f j l l . l l l j f s f s s s s s s s a s s .                             ",
"                          X l 4.4.4.4.l 4.4.4.4.9.9.9.9.y.i.i.. i.i.9.9.9.9.4.l 4.4.4.4.3.3.4.1.4..                             ",
"                          X 4 4 4 4 4 w w 4 r e e t t t t t s . s t t t t r t r e w w t 1 4 1 1 1 .                             ",
"                          X 4 4 4 4 4 4 w e r r t e t e t t s . s t t t t t r r t w w w 1 1 1 1 1 .                             ",
"                          X 4 1 1 4 e e e e r e e t t t t t t . s t t t t t t w r w r w e e 1 1 1 .                             ",
"                          X 1 1 1 e e e e e e r t e e t t t s . s t t t t t t r r r w r 4 e e 1 1 .                             ",
"                          . . X X X X X X X X X X X X X X X X X . . X X X X X X . . . . . . . . . .                             ",
"                                                                                                                                ",
"                                                                                                                                ",
"                                                                                                                                ",
"                                                                                                                                ",
"                                                                                                                                ",
"                                                                                                                                ",
"                                                                                                                                "
};
