/* XPM */
static char *c1ee66f1b84346b6aff667264778d8f444ONPVOuR6nzHz8P[] = {
/* columns rows colors chars-per-pixel */
"64 64 113 2 ",
"   c None",
".  c #151312",
"X  c #181715",
"o  c #191817",
"O  c #1C1C1A",
"+  c #221E1C",
"@  c #21211F",
"#  c #242422",
"$  c #292623",
"%  c #2E2924",
"&  c #2C2C2C",
"*  c #342F2B",
"=  c #33302C",
"-  c #3B342E",
";  c #333333",
":  c #3A3734",
">  c #393837",
",  c #3D3D3B",
"<  c #3D3C3B",
"1  c #3D3D3C",
"2  c #3E3D3C",
"3  c #3E3E3C",
"4  c #3F3E3D",
"5  c #3F3F3D",
"6  c #3B3A39",
"7  c #413932",
"8  c #423A32",
"9  c #423A33",
"0  c #433A33",
"q  c #433B34",
"w  c #403B37",
"e  c #433C34",
"r  c #453C35",
"t  c #433B33",
"y  c #403F3D",
"u  c #403F3E",
"i  c #40403E",
"p  c #41403E",
"a  c #41403F",
"s  c #41413F",
"d  c #42413E",
"f  c #42413F",
"g  c #43413F",
"h  c #41413F",
"j  c #4B433B",
"k  c #4C423A",
"l  c #4F453C",
"z  c #4F453C",
"x  c #50463C",
"c  c #50463D",
"v  c #51463D",
"b  c #51473D",
"n  c #52473E",
"m  c #50463D",
"M  c #52483E",
"N  c #424140",
"B  c #424240",
"V  c #434240",
"C  c #434241",
"Z  c #444341",
"A  c #454442",
"S  c #454443",
"D  c #464442",
"F  c #464543",
"G  c #474643",
"H  c #474644",
"J  c #464543",
"K  c #484643",
"L  c #484745",
"P  c #494845",
"I  c #4A4846",
"U  c #4B4947",
"Y  c #4B4A47",
"T  c #4C4A48",
"R  c #4C4B48",
"E  c #4D4B48",
"W  c #4D4B49",
"Q  c #4D4C49",
"!  c #4E4C49",
"~  c #4E4D4A",
"^  c #4F4E4B",
"/  c #504E4A",
"(  c #504E4B",
")  c #514F4C",
"_  c #53514D",
"`  c #54524E",
"'  c #54524F",
"]  c #55534F",
"[  c #57544F",
"{  c #565450",
"}  c #575551",
"|  c #585652",
" . c #595652",
".. c #595752",
"X. c #5A5853",
"o. c #5A5854",
"O. c #5B5954",
"+. c #5C5955",
"@. c #5C5A55",
"#. c #5F5C57",
"$. c #5F5D57",
"%. c #605D58",
"&. c #605E58",
"*. c #625F5A",
"=. c #62605A",
"-. c #63605B",
";. c #65625C",
":. c #65625D",
">. c #66635D",
",. c #67645E",
"<. c #68655F",
"1. c #69665F",
"2. c #696660",
/* pixels */
"                                                                                                                                ",
"                                                                                                                                ",
"                                                                                                                                ",
"                                                                                                                                ",
"                                                                                                                                ",
"                                                                                                                                ",
"                                                                                                                                ",
"                                                                                                                                ",
"                                                                                                                                ",
"                                                                                                                                ",
"                                                        O O O O O O O O O O O O O O O O                                         ",
"                                                        # # # # $ $ # # $ $ # # # @ # #                                         ",
"                                                O O O @ # ; > 6 , 6 6 > > , > > & & & $ @ O O O                                 ",
"                                                # @ # # ; 1 a S S S R ~ ~ R Y N 6 > > ; & @ @ #                                 ",
"                                        O O O @ & & & ; 1 N S H S ~ @.-.-.X.R N i N N < & & & & # O O O                         ",
"                                        @ # # # & ; > 6 N S a a N S ` @.@.[ Y S B S S N , ; ; & # @ O @                         ",
"                                O O O @ & & & & ; ; 1 N S N 6 ; ; : 1 1 u g S S S H H C a 2 ; ; & & @ O O @                     ",
"                                @ # # # & ; ; ; ; ; 4 N a 1 ; ; ; ; ; & ; ; 1 a a u u u S C 6 ; ; & # @ O O                     ",
"                            O # $ & & & ; ; ; ; ; ; ; > ; ; ; ; ; ; ; ; ; ; ; ; > ; > 6 N C C 2 ; ; & & # O                     ",
"                            # # ; > > ; ; ; ; > ; > > ; ; ; ; ; ; & ; & ; ; ; ; ; ; ; > u N a 6 > ; ; & # #                     ",
"                    O O O @ & ; 1 N 1 1 ; ; 1 h a a a 1 ; ; ; ; ; ; ; ; ; ; ; ; ; ; 4 4 > > > ; ; ; ; ; & &                     ",
"                    # # # # & ; 1 N S N 6 > 1 h N 1 a 1 > & ; ; ; & ; ; ; ; ; ; ; 6 N u ; ; ; ; ; ; ; ; & &                     ",
"                O @ & & & & ; ; > 6 a S h 1 6 > > > > > ; ; ; ; ; ; & ; ; ; 1 a a g S a > ; ; ; & ; ; & # o                     ",
"                O @ & ; ; ; ; ; & > 1 h h 1 ; ; & ; ; ; & ; & > 6 1 6 ; ; 6 g S S S S a ; & ; ; ; ; & # o .                     ",
"                O @ & ; ; ; ; & ; ; > > > ; ; ; ; & ; ; ; & ; 6 ~ ' S 1 a a S S S S S a : ; ; ; ; & + o . .                     ",
"                O # & ; & ; > > > ; ; & ; ; & ; ; ; ; ; ; ; 6 L #.*.{ U L S S S S S g 1 ; ; & & & # O . . .                     ",
"                O # & ; ; > 1 h a 1 ; & & ; ; & ; ; ; & ; > ( $.:.:.*. .Y S S S S a 6 ; ; & @ O O o . . . .                     ",
"                O @ & & & > 1 B S S N N i i i , > > > > < L $.2.2.2.2.#.T S p u N u ; ; & # o . . . . . + +                     ",
"                O O @ # & ; > 1 N T [ @.@.@.@.[ S 1 i S ] $.>.,.>.2.2.$.~ p 6 > > ; ; & @ X . . . . . o * r k v                 ",
"                @ O O @ & & & & > p _ [ [ ..$.X.T S S ~ X.-.>.1.2.>.*.@.K 6 = & & & ; # o . . . . . . + 0 n v v                 ",
"            b 7 # O O @ @ # @ # # $ & & & ; K ~ S S S S T [ -.1.2.*.{ S 1 & # # @ @ @ @ X . . . . . . + 0 n b b l l             ",
"            b q $ O O O O O O O O O O O O # = , 1 1 1 p 1 S ] X.@.` N > & & @ O O O o X . . . . X + o + : k x K l l             ",
"        l b l e $ O O O O @ O O O O O O O O # # # & ; 6 > ; 1 h 1 > & # # @ O O X . X . . . . o # & & & ; q j b                 ",
"        l l b q $ O O O O O O O O O @ O O @ O O O O & & ; ; ; & ; & O O O o O O . . . . . . o # & ; ; ; & ; : 7                 ",
"    l l l l b q $ O O O O O O O O O O O O @ O O O O @ # & ; ; ; ; & @ O X X . . . . . . . O # & & ; ; & # # + $ 7 b b z         ",
"    l l l b l e $ O O o O @ @ # # @ @ O O O O @ O O O @ & ; ; ; ; & @ X . . . . . . . . . O & ; ; ; & & O O . + 7 b b z         ",
"            b e & o o o O @ & & & & @ O O O O O O O O # & ; ; > ; & O . . . . . . . . . o @ & > ; ; # # O O . + 7 b             ",
"            b e # X . X @ # & ; ; & # @ @ @ O O @ O O # & ; & & & # O . . . . . . . . . O # & ; ; # # O O o X + 7 b             ",
"    l l z x b 8 @ . . X # & & ; ; ; & & & & @ O O @ O @ & & # @ O O . . . . . . . . . X O @ & & # @ O O O o X + 7 b l l         ",
"    l l x b b : @ . X # ; > 6 > ; > ; ; ; & # O O O O @ $ & # O . . . . . . . . . . . X o @ $ & # O O O O o . O 7 l b l         ",
"    l l l l b 7 + X @ = < N p p h 1 > ; ; & # O O O O O # @ O O . . . . . . . . . . . . o + @ @ + O O O o . . + 7 b b l l l     ",
"    l l l b b : + X $ = > 1 S G S h ; ; & # O O O o O O O O O O o . . . . . . . . . + @ $ @ O o o O o o . . O % r l l l l l     ",
"                . . X + # * 1 S L h > & @ o o X o o O O O O O O . . . . . . . . . + * r r - + . . . . . . O * r k l l l l l     ",
"                @ + X X o # ; < 1 > ; # o . . . . . o o O O O O o X . . . . . . . + 8 n n 0 % + + @ + + + % r b b l l l l l     ",
"        b l l k 8 * O X X @ # # $ $ # + o . . . . . . . X X O O O O O o o . . . . + 8 n n k r 0 7 7 7 7 q r j l l l             ",
"        z l l b z k @ @ O O O O o o o X . . O O + + + + . X X O o O O o . . . . + @ 0 x v x n n b b b b l b l l l l             ",
"    l l l l l l x k k * + X O o X . . . . + & w 7 0 7 * O . . . . o O O . . . O * r k x k k     z b c c b l                     ",
"    l l l l l l z z x : @ . X O + @ + + + % e E b b b 7 % + + + + + o o . . . + 8 v v x v x     z z z z l l                     ",
"            l l l b b 7 + . . O = 0 7 7 7 r k b b l b j r 7 7 7 8 = + . . . . + 7 b b l                                         ",
"            l l l l l r % + + % r b b b b b z b l l l l l b b b v e % + + + + % r l b l                                         ",
"        l l l l l l l k 7 7 7 0 z l                 l l b l l b v k 0 7 : 7 7 r k l                                             ",
"        l l l l l l l l b b b b l l                 l l l l l l z v v v v v b b l l                                             ",
"                l l l l v b                                 l l z z v z                                                         ",
"                l l l l z z                                 l l z v z z                                                         ",
"                                                                                                                                ",
"                                                                                                                                ",
"                                                                                                                                ",
"                                                                                                                                ",
"                                                                                                                                ",
"                                                                                                                                ",
"                                                                                                                                ",
"                                                                                                                                ",
"                                                                                                                                ",
"                                                                                                                                "
};
